<?xml version="1.0" standalone="no"?>
<!DOCTYPE svg PUBLIC "-//W3C//DTD SVG 20010904//EN"
 "http://www.w3.org/TR/2001/REC-SVG-20010904/DTD/svg10.dtd">
<svg version="1.0" xmlns="http://www.w3.org/2000/svg"
 width="384.000000pt" height="640.000000pt" viewBox="0 0 384.000000 640.000000"
 preserveAspectRatio="xMidYMid meet">

<g transform="translate(0.000000,640.000000) scale(0.100000,-0.100000)"
fill="#ff6e00" stroke="none">
<path d="M1826 5501 c-3 -4 -43 -11 -88 -15 -319 -26 -671 -159 -935 -353 -91
-66 -215 -182 -207 -194 12 -20 40 -6 108 54 302 268 614 405 1051 461 149 20
210 20 360 1 421 -54 771 -205 1028 -444 48 -45 90 -81 94 -81 5 0 15 5 23 10
12 9 2 23 -56 78 -255 242 -652 420 -1034 462 -58 7 -115 16 -128 21 -29 11
-209 12 -216 0z"/>
<path d="M1772 4920 c-324 -34 -629 -184 -872 -429 -209 -209 -347 -451 -411
-716 -26 -109 -26 -108 17 -90 20 8 52 15 70 15 29 0 34 4 34 23 0 12 18 41
40 65 33 36 45 42 79 42 30 0 43 -5 51 -19 14 -27 46 -35 81 -21 39 17 76 5
94 -29 14 -27 18 -29 72 -26 l58 2 7 59 c14 106 87 214 156 230 15 4 36 15 47
25 49 44 118 43 171 -3 11 -10 33 -18 48 -18 26 0 28 -2 22 -33 -13 -71 33
-216 83 -261 12 -11 21 -26 21 -35 1 -9 14 -41 30 -71 30 -55 42 -139 19 -124
-33 20 -102 -107 -129 -239 -7 -36 -18 -61 -27 -64 -9 -4 -100 -2 -203 4 -110
6 -206 7 -231 2 -24 -5 -61 -11 -83 -14 -73 -12 -30 -13 82 -4 99 9 130 7 234
-11 66 -11 144 -20 172 -20 29 0 57 -5 64 -12 15 -15 16 -118 1 -118 -5 0 -8
-4 -5 -8 3 -5 -83 -12 -190 -16 -183 -6 -197 -5 -222 13 -23 16 -46 19 -155
20 -79 0 -125 -3 -122 -9 4 -6 13 -10 22 -10 9 0 14 -2 11 -6 -3 -3 -73 -7
-154 -10 -82 -3 -167 -6 -189 -8 -21 -2 -47 1 -57 7 -32 21 -32 -3 1 -111 92
-304 280 -575 545 -787 l49 -40 26 35 c59 78 180 219 243 285 38 38 68 77 68
87 0 10 5 18 10 18 31 0 -7 -55 -155 -228 -91 -106 -165 -198 -165 -206 0 -19
230 -131 345 -167 147 -46 143 -44 155 -88 14 -53 51 -95 99 -114 35 -14 39
-20 45 -60 4 -24 13 -53 21 -63 7 -11 11 -30 8 -44 -2 -14 3 -54 12 -88 l16
-63 -37 -39 c-26 -27 -49 -41 -77 -45 -21 -4 -48 -16 -58 -26 -22 -22 -25 -68
-6 -88 10 -11 9 -13 -5 -8 -10 4 -18 2 -18 -3 0 -6 -3 -9 -7 -8 -11 3 -65 -10
-147 -34 -78 -22 -77 -32 5 -54 60 -16 322 -37 366 -29 41 8 121 13 278 18
132 5 229 20 240 37 4 7 -131 46 -146 43 -7 -2 -19 125 -19 199 0 27 6 59 14
71 8 12 17 38 21 57 4 19 18 58 30 86 28 63 33 202 9 259 -17 41 -29 33 131
91 118 42 260 116 365 188 170 117 359 331 452 511 50 97 139 311 132 318 -3
2 -26 0 -52 -5 -51 -11 -55 -11 -152 -2 -68 6 -130 -4 -130 -21 0 -5 22 -11
50 -13 46 -3 56 -9 51 -36 -1 -5 4 -13 11 -18 8 -6 -33 -7 -102 -2 -63 4 -188
7 -278 8 -158 1 -163 2 -158 21 3 11 6 23 6 27 0 6 85 3 185 -7 39 -3 39 -3
15 10 -16 9 -56 14 -108 15 l-83 0 2 48 c1 26 -1 63 -5 83 l-8 36 169 8 c92 4
271 6 398 4 l229 -4 7 35 c4 19 9 62 11 95 2 49 0 59 -12 57 -119 -28 -149
-38 -172 -60 -30 -28 -123 -51 -239 -59 -70 -5 -80 -3 -115 21 -44 29 -153 68
-238 86 -39 8 -53 15 -50 25 17 43 -72 208 -140 260 -57 44 -121 63 -173 54
-78 -15 -189 -96 -242 -176 l-31 -46 0 36 c0 35 -1 36 -20 25 -23 -14 -40 -57
-40 -102 -1 -17 -7 -44 -15 -61 -13 -30 -13 -30 -14 25 -1 95 7 122 52 158 36
29 42 31 47 17 5 -15 9 -13 25 11 10 16 28 36 39 46 33 27 131 77 189 97 66
23 75 53 28 106 -33 39 -33 42 10 120 39 71 45 183 10 192 -21 5 -27 46 -34
225 -4 90 -7 101 -38 150 -19 29 -47 67 -63 85 -15 18 -23 33 -17 33 21 0 93
-85 119 -138 22 -47 24 -60 18 -127 -7 -74 -7 -75 17 -75 26 0 97 -47 119 -79
14 -19 19 -20 68 -11 83 16 121 12 185 -18 68 -33 122 -88 160 -162 14 -27 29
-50 34 -50 5 0 16 12 26 26 13 20 22 24 40 20 13 -3 36 1 51 9 16 8 37 15 48
15 32 0 88 -41 102 -76 13 -30 17 -32 48 -27 19 3 47 3 61 -1 33 -8 65 -61 65
-109 0 -27 5 -39 18 -44 9 -3 27 -15 39 -26 13 -11 26 -18 29 -14 10 9 -43
204 -85 315 -80 209 -203 393 -372 558 -171 165 -327 263 -541 339 -68 23
-166 50 -218 59 -120 20 -310 27 -418 16z m47 -154 c9 -11 8 -18 -5 -31 -15
-15 -19 -15 -32 -1 -17 17 -10 46 11 46 8 0 20 -6 26 -14z m-354 -96 c0 -7 -6
-15 -12 -17 -8 -3 -13 4 -13 17 0 13 5 20 13 18 6 -3 12 -11 12 -18z m-190
-78 c-3 -3 -11 0 -18 7 -9 10 -8 11 6 5 10 -3 15 -9 12 -12z m609 -97 c85 -24
151 -60 208 -113 42 -39 78 -88 78 -106 0 -2 -25 4 -56 15 -82 29 -220 38
-571 39 -172 0 -313 4 -313 8 0 21 162 151 220 175 31 14 373 -1 434 -18z
m966 -45 c0 -5 -4 -10 -10 -10 -5 0 -10 5 -10 10 0 6 5 10 10 10 6 0 10 -4 10
-10z m-299 -10 c23 -13 25 -33 5 -49 -11 -9 -20 -10 -35 -1 -24 12 -27 30 -9
48 15 15 15 15 39 2z m-519 -151 c66 -14 111 -37 165 -83 50 -44 81 -114 63
-143 -9 -14 -10 -14 -6 -1 5 17 -12 28 -45 28 -11 0 -49 25 -84 55 -101 86
-197 124 -315 126 l-55 1 45 13 c57 17 164 18 232 4z m-964 -32 c2 -10 -3 -17
-12 -17 -18 0 -29 16 -21 31 9 14 29 6 33 -14z m1452 -5 c0 -13 -12 -22 -22
-16 -10 6 -1 24 13 24 5 0 9 -4 9 -8z m-548 -31 c62 -24 172 -101 188 -132 8
-15 5 -21 -17 -32 -25 -14 -28 -13 -46 9 -27 34 -191 112 -272 129 -100 21
-153 19 -205 -7 -37 -19 -46 -29 -51 -58 -4 -26 -7 -31 -13 -18 -14 31 -1 53
48 86 68 45 97 52 211 48 74 -2 115 -9 157 -25z m856 -7 c0 -17 -4 -22 -11
-15 -5 5 -7 17 -4 25 9 23 15 19 15 -10z m-1563 -65 c0 -8 -10 -15 -22 -17
-25 -4 -33 22 -10 31 18 8 32 2 32 -14z m1810 12 c7 -12 -12 -24 -25 -16 -11
7 -4 25 10 25 5 0 11 -4 15 -9z m-1450 -52 c-25 -71 -30 -176 -11 -242 19 -64
53 -127 69 -127 8 0 8 -3 0 -11 -41 -41 -123 113 -123 231 0 59 24 139 51 174
28 36 32 28 14 -25z m-716 -48 c8 -5 11 -16 8 -25 -8 -21 -43 -21 -51 0 -11
30 13 44 43 25z m1351 -32 c46 -37 64 -77 56 -122 -9 -48 -33 -77 -63 -77 -47
0 -63 25 -63 100 0 79 9 130 22 130 5 0 27 -14 48 -31z m-90 6 c-7 -8 -17 -15
-22 -15 -6 0 -5 7 2 15 7 8 17 15 22 15 6 0 5 -7 -2 -15z m-72 -40 c16 -21 19
-36 15 -78 -3 -28 -10 -55 -17 -59 -15 -10 -66 -10 -67 0 -1 4 -2 42 -4 85
l-2 77 28 0 c18 0 35 -9 47 -25z m72 -245 c-4 -25 -8 -37 -9 -27 0 10 -4 17
-8 15 -5 -1 -42 -20 -83 -40 -155 -77 -300 -90 -387 -33 -34 23 -22 30 16 10
18 -9 60 -18 94 -22 97 -9 200 26 326 111 30 20 55 35 56 34 1 -2 -1 -23 -5
-48z m101 -44 c7 4 10 0 7 -12 -4 -23 -178 -129 -245 -150 -57 -17 -204 -21
-241 -7 -17 7 -4 9 50 10 40 1 93 9 118 17 l45 14 -75 2 -75 2 60 13 c78 17
152 46 250 98 73 38 81 40 87 24 4 -10 13 -15 19 -11z m165 -216 c28 -21 65
-61 82 -88 l30 -49 -36 19 c-41 20 -122 24 -140 6 -20 -20 -15 -83 8 -103 11
-10 20 -23 20 -30 0 -19 34 -44 68 -51 50 -10 78 2 89 38 l11 33 1 -47 c1 -28
-3 -48 -10 -48 -6 0 -8 -9 -3 -22 4 -13 8 -43 9 -68 1 -25 5 -63 10 -85 l8
-40 -25 26 c-53 57 -177 64 -247 15 -28 -21 -37 -23 -43 -12 -16 29 29 115 61
117 9 0 0 6 -19 12 -34 12 -35 11 -43 -15 -12 -43 -27 -43 -27 0 0 50 -30 224
-40 235 -4 5 -11 -24 -15 -64 -6 -59 -9 -69 -18 -53 -6 10 -11 49 -11 86 0 95
-16 69 -20 -33 -2 -46 -7 -83 -10 -81 -3 1 -10 2 -14 2 -31 0 -43 135 -18 194
18 43 81 113 120 133 77 41 143 32 222 -27z m-420 11 c-3 -5 -26 -18 -50 -29
-52 -25 -64 -52 -68 -159 l-3 -73 -108 0 c-98 0 -108 2 -105 18 2 12 14 18 41
20 l37 3 0 63 0 63 56 6 c34 3 60 12 67 21 7 9 39 29 72 45 70 34 68 34 61 22z
m-359 -108 c-3 -10 -5 -4 -5 12 0 17 2 24 5 18 2 -7 2 -21 0 -30z m-10 -70
c-3 -10 -5 -2 -5 17 0 19 2 27 5 18 2 -10 2 -26 0 -35z m773 37 c0 -5 -2 -10
-4 -10 -3 0 -8 5 -11 10 -3 6 -1 10 4 10 6 0 11 -4 11 -10z m60 0 c11 -7 12
-10 2 -10 -9 0 -11 -7 -7 -22 6 -22 6 -22 -9 -4 -28 35 -19 57 14 36z m-88
-41 l-9 -24 -7 23 c-8 26 2 48 15 35 6 -6 6 -19 1 -34z m136 6 c-3 -3 -9 2
-12 12 -6 14 -5 15 5 6 7 -7 10 -15 7 -18z m12 -70 c0 -37 -32 -50 -75 -29
-45 21 -53 34 -21 34 14 0 26 5 26 10 0 6 16 10 35 10 31 0 35 -3 35 -25z
m-439 -153 c-2 -2 8 -16 22 -30 33 -36 47 -66 38 -81 -6 -9 -12 -6 -24 12 -8
13 -52 64 -97 112 l-81 88 22 23 22 23 50 -72 c28 -40 50 -74 48 -75z m-433
117 c12 -19 19 -20 100 -14 48 3 100 9 116 12 l29 5 -32 -43 c-18 -24 -61 -78
-95 -119 -52 -62 -68 -75 -92 -75 -19 0 -30 6 -32 16 -2 12 3 15 20 12 19 -4
27 2 41 31 14 30 15 40 5 56 -14 22 -24 25 -33 10 -22 -35 -55 23 -55 98 0 37
10 41 28 11z m246 -166 c-23 -75 -27 -103 -16 -103 5 0 13 12 17 27 6 25 7 26
17 9 7 -13 7 -20 -2 -26 -24 -15 7 -19 34 -4 38 19 39 18 21 -16 -22 -42 -18
-50 8 -17 l23 27 29 -30 c34 -36 25 -52 -29 -52 -57 0 -166 95 -166 146 0 17
57 86 71 86 4 0 1 -21 -7 -47z m74 21 c12 -8 20 -20 16 -25 -3 -5 0 -8 8 -7 7
2 12 -3 10 -11 -2 -11 0 -12 11 -3 8 7 18 8 23 4 5 -4 1 2 -9 14 -30 37 -18
39 19 3 49 -47 68 -84 54 -109 -6 -11 -16 -20 -23 -20 -12 0 -157 149 -157
163 0 12 24 8 48 -9z m554 -115 c45 -12 54 -34 39 -101 -14 -60 -50 -158 -59
-158 -4 0 -27 16 -51 35 -53 42 -77 50 -152 50 l-56 -1 9 29 c14 40 44 55 123
65 l70 8 -60 14 -60 14 40 6 40 6 -32 8 c-19 4 -40 3 -52 -3 -25 -14 -34 -14
-25 0 21 35 147 51 226 28z m-729 -26 c-2 -7 7 -13 20 -14 15 -1 11 -4 -13
-10 -50 -12 -90 -2 -90 22 0 17 6 20 43 17 27 -2 41 -7 40 -15z m-765 -2 c22
-13 -201 -24 -248 -11 -22 6 -40 13 -40 15 0 9 275 5 288 -4z m466 -75 c-3 -8
-11 -13 -19 -10 -7 3 -20 -2 -28 -11 -14 -14 -47 -16 -244 -14 -154 1 -220 5
-203 11 14 5 86 9 162 10 86 0 152 5 180 13 61 19 159 20 152 1z m612 -8 c28
-22 55 -51 50 -55 -1 -1 -23 7 -49 19 -31 14 -47 28 -47 40 0 24 11 23 46 -4z
m-507 -98 c-52 -106 -69 -160 -50 -160 6 0 11 -7 11 -15 0 -17 -2 -18 -24 -9
-9 3 -16 17 -16 30 0 31 66 197 92 229 40 51 35 22 -13 -75z m377 41 c19 -17
33 -36 32 -43 -2 -8 10 -14 32 -16 88 -6 88 -11 3 -53 -105 -50 -164 -115
-203 -224 l-11 -30 -35 37 c-19 21 -34 43 -34 50 0 7 9 -2 21 -21 20 -34 39
-38 21 -5 -7 12 -7 25 -1 36 12 22 4 39 -15 32 -9 -3 -11 3 -8 24 2 17 -2 40
-9 53 -7 13 -12 28 -11 33 2 5 -4 6 -13 3 -9 -4 -15 -1 -15 9 0 8 4 13 9 9 5
-3 12 -1 16 5 3 5 0 11 -7 12 -7 1 34 4 92 7 l104 6 7 33 6 32 -66 0 c-77 1
-138 13 -157 32 -12 12 3 14 96 12 108 -3 112 -4 146 -33z m192 -44 c2 -10 -3
-17 -12 -17 -9 0 -16 2 -16 4 0 2 -3 12 -6 21 -5 13 -2 16 12 13 10 -2 20 -11
22 -21z m240 -2 c48 -21 82 -53 82 -80 0 -32 -29 -112 -46 -126 -11 -9 -35 -5
-114 20 -98 31 -131 52 -69 43 22 -3 30 -1 25 7 -4 6 -19 11 -33 11 -24 0 -25
2 -20 38 4 24 17 47 37 65 17 15 24 27 17 27 -7 0 -18 -5 -25 -12 -6 -6 -15
-8 -19 -4 -27 27 105 35 165 11z m520 -39 c25 -25 4 -36 -74 -36 -60 0 -74 3
-74 15 0 39 114 55 148 21z m-788 -87 c0 -12 -12 -30 -26 -42 -39 -30 -64 -93
-64 -160 l0 -58 44 -20 c24 -10 58 -22 75 -25 25 -5 30 -10 26 -25 -4 -11 -7
-32 -7 -48 -1 -23 -7 -31 -26 -36 -13 -3 -22 -8 -19 -11 3 -3 22 2 42 10 21 9
46 16 57 16 18 0 20 -4 14 -32 -4 -18 -11 -34 -16 -36 -6 -2 -10 -20 -10 -40
l-1 -37 -20 28 c-43 57 -173 106 -282 107 l-38 0 25 33 c14 19 23 37 19 41 -4
4 -1 4 8 1 8 -3 26 4 40 16 16 15 18 20 7 16 -10 -3 -20 -2 -23 3 -4 6 -16 10
-28 11 -12 0 -16 3 -9 6 19 7 14 23 -7 23 -12 0 -22 -9 -25 -22 -3 -13 -3 0
-1 29 7 96 77 193 174 243 68 35 71 36 71 9z m-474 -41 c-4 -13 -11 -43 -16
-68 -4 -25 -13 -58 -19 -73 -6 -16 -11 -49 -11 -75 0 -26 -7 -60 -15 -76 -19
-36 -19 -47 0 -22 15 19 15 19 15 -2 0 -15 -6 -22 -20 -22 -15 0 -20 7 -20 24
0 14 5 28 10 31 6 3 10 18 10 33 0 26 35 218 46 255 8 26 27 21 20 -5z m661
-35 c46 -15 83 -31 83 -36 0 -5 -8 -6 -17 -2 -10 3 -52 18 -93 32 -41 14 -77
27 -79 29 -11 11 30 1 106 -23z m-570 -5 c-3 -8 -6 -5 -6 6 -1 11 2 17 5 13 3
-3 4 -12 1 -19z m34 -11 c-10 -9 -11 -8 -5 6 3 10 9 15 12 12 3 -3 0 -11 -7
-18z m-833 -30 c4 -20 -25 -34 -40 -19 -15 15 -1 44 19 40 10 -2 19 -11 21
-21z m1326 -22 c27 -8 64 -15 83 -15 l33 0 0 -64 c0 -62 -13 -96 -23 -59 -3
11 -5 8 -6 -9 0 -16 -6 -28 -12 -28 -6 0 -8 9 -4 20 3 11 2 20 -4 20 -5 0 -13
-10 -17 -22 l-8 -23 -6 25 c-8 35 -52 40 -68 8 -9 -21 -11 -18 -11 23 -1 25
-4 67 -7 93 -4 25 -5 46 -3 46 2 0 26 -7 53 -15z m49 8 c-7 -2 -19 -2 -25 0
-7 3 -2 5 12 5 14 0 19 -2 13 -5z m44 -9 c-3 -3 -12 -4 -19 -1 -8 3 -5 6 6 6
11 1 17 -2 13 -5z m-862 -34 c0 -13 -6 -25 -12 -27 -16 -6 -27 21 -19 43 9 23
31 11 31 -16z m245 -72 c0 -10 3 -17 8 -14 4 2 14 -1 22 -7 14 -11 14 -20 2
-74 -8 -35 -17 -63 -20 -63 -4 0 -13 9 -20 20 -10 16 -10 20 2 20 8 0 19 14
25 31 14 40 14 60 0 57 -6 -2 -14 4 -18 12 -5 8 -14 26 -21 40 -12 23 -12 24
3 11 10 -7 17 -22 17 -33z m955 -18 c0 -18 -6 -26 -23 -28 -24 -4 -38 18 -28
44 3 9 15 14 28 12 17 -2 23 -10 23 -28z m-759 -42 c3 -4 -1 -5 -10 -4 -8 1
-18 5 -22 8 -3 4 1 5 10 4 8 -1 18 -5 22 -8z m-262 -92 l48 -61 -61 63 c-34
34 -61 70 -60 80 0 15 1 15 12 -2 7 -10 34 -46 61 -80z m236 61 c0 -2 -11 -14
-25 -27 -25 -23 -25 -23 -25 -2 0 11 8 23 18 25 24 7 32 7 32 4z m-290 -236
c-1 -9 -12 7 -25 34 -31 66 -31 82 0 26 14 -23 25 -50 25 -60z m465 77 c53
-23 85 -50 85 -70 0 -10 -4 -17 -9 -14 -5 3 -16 -5 -25 -19 -9 -14 -15 -25
-14 -25 2 0 18 4 36 9 52 15 43 -3 -35 -67 -84 -69 -148 -87 -221 -61 -44 15
-66 54 -66 118 0 78 12 84 144 77 130 -7 115 8 -24 25 -62 8 -93 16 -87 22 6
6 36 6 82 -1 75 -11 112 -8 43 3 -83 14 -91 25 -14 21 41 -3 89 -10 105 -18z
m-365 -41 c0 -5 -4 -5 -10 -2 -5 3 -10 14 -10 23 0 15 2 15 10 2 5 -8 10 -19
10 -23z m451 -145 c-18 -33 -101 -94 -149 -109 -28 -8 -62 -11 -84 -7 -56 9
-55 22 2 16 70 -7 91 2 162 63 66 57 85 67 69 37z m-3 -74 c-4 -27 0 -38 25
-60 26 -25 29 -33 23 -68 -3 -22 -1 -61 4 -86 13 -57 11 -58 -77 -74 -56 -9
-69 -8 -106 8 -46 21 -87 63 -117 123 -23 44 -27 72 -6 44 11 -15 24 -18 76
-16 126 5 154 41 33 42 l-78 1 51 15 c30 8 74 34 105 59 30 24 58 44 63 44 4
0 6 -15 4 -32z m-551 0 c-3 -8 -6 -5 -6 6 -1 11 2 17 5 13 3 -3 4 -12 1 -19z
m593 9 c0 -7 -7 -22 -15 -33 -14 -18 -14 -18 -15 7 0 14 3 29 7 32 11 11 23 8
23 -6z m-16 -348 c-20 -33 -144 -50 -214 -30 -17 5 7 10 73 15 55 4 109 11
120 16 29 12 29 12 21 -1z m-24 -79 c-6 -24 -57 -47 -83 -37 -13 5 1 12 46 21
54 12 25 21 -68 21 -52 0 -99 5 -104 10 -7 7 28 10 103 10 l113 0 -7 -25z
m-50 -112 c0 -9 4 -8 10 2 8 13 10 12 10 -3 0 -12 -6 -17 -17 -15 -18 3 -31
28 -14 28 6 0 11 -6 11 -12z m17 -102 c2 -2 6 -17 9 -34 6 -28 3 -33 -22 -43
-39 -15 -97 -19 -115 -8 -11 7 -10 9 6 9 16 0 17 2 5 10 -9 5 -19 5 -25 0 -8
-7 -11 -3 -10 12 2 22 33 51 46 42 5 -3 9 -1 9 5 0 16 80 21 97 7z"/>
<path d="M1718 3263 c18 -2 45 -2 60 0 15 2 0 4 -33 4 -33 0 -45 -2 -27 -4z"/>
<path d="M1991 3223 c-1 -7 24 -38 55 -70 35 -36 42 -41 18 -13 -22 25 -47 56
-56 70 -9 14 -17 20 -17 13z"/>
<path d="M2485 2908 c20 -17 45 -47 55 -67 19 -35 19 -35 20 -9 0 31 -66 108
-94 108 -12 0 -6 -9 19 -32z"/>
<path d="M1808 2803 c7 -3 16 -2 19 1 4 3 -2 6 -13 5 -11 0 -14 -3 -6 -6z"/>
<path d="M2090 2559 c0 -5 5 -7 10 -4 6 3 10 8 10 11 0 2 -4 4 -10 4 -5 0 -10
-5 -10 -11z"/>
<path d="M2020 2518 c0 -6 -3 -9 -6 -5 -4 3 -22 -12 -40 -34 -39 -46 -46 -69
-9 -26 13 15 27 26 29 25 8 -5 46 31 46 42 0 5 -4 10 -10 10 -5 0 -10 -5 -10
-12z"/>
<path d="M2009 1652 c25 -36 68 -68 78 -58 3 3 0 6 -7 6 -7 0 -31 19 -53 43
-34 35 -37 36 -18 9z"/>
<path d="M2898 3633 c-10 -2 -18 -8 -18 -13 0 -8 44 -6 70 3 8 3 24 8 35 10
11 3 0 5 -25 5 -25 0 -53 -2 -62 -5z"/>
<path d="M3010 3617 c0 -8 7 -18 16 -21 11 -4 14 -1 12 11 -4 21 -28 30 -28
10z"/>
<path d="M850 3196 c0 -2 7 -9 15 -16 13 -11 14 -10 9 4 -5 14 -24 23 -24 12z"/>
<path d="M948 3173 c7 -3 16 -2 19 1 4 3 -2 6 -13 5 -11 0 -14 -3 -6 -6z"/>
<path d="M462 3090 c5 -16 56 -35 118 -44 42 -7 43 -6 20 6 -14 8 -45 20 -69
27 -23 7 -50 15 -58 18 -10 4 -14 1 -11 -7z"/>
<path d="M477 3042 c2 -10 10 -19 16 -19 7 0 23 -3 36 -8 21 -6 22 -5 10 8 -8
8 -17 13 -22 10 -4 -2 -10 3 -13 11 -9 23 -33 20 -27 -2z"/>
<path d="M550 3030 c8 -5 20 -10 25 -10 6 0 3 5 -5 10 -8 5 -19 10 -25 10 -5
0 -3 -5 5 -10z"/>
<path d="M1208 3013 c7 -3 16 -2 19 1 4 3 -2 6 -13 5 -11 0 -14 -3 -6 -6z"/>
<path d="M1045 2053 c-22 -7 -66 -20 -97 -28 -45 -12 -58 -20 -58 -35 0 -34
35 -43 77 -21 21 11 59 30 86 41 42 20 60 42 40 53 -5 2 -26 -3 -48 -10z"/>
<path d="M1133 1880 c-15 -6 -23 -18 -23 -33 0 -29 12 -40 62 -58 31 -10 42
-10 62 0 42 23 39 47 -9 76 -47 27 -58 29 -92 15z"/>
</g>
</svg>
